<svg width="32" height="32" viewBox="0 0 512 512" fill="none" xmlns="http://www.w3.org/2000/svg">
<path d="M141.002 122.863C132.515 122.863 124.376 119.492 118.375 113.491C112.373 107.49 109.002 99.3504 109.002 90.8634C109.002 82.3765 112.373 74.2372 118.375 68.236C124.376 62.2349 132.515 58.8634 141.002 58.8634C149.489 58.8634 157.628 62.2349 163.629 68.236C169.631 74.2372 173.002 82.3765 173.002 90.8634C173.002 99.3504 169.631 107.49 163.629 113.491C157.628 119.492 149.489 122.863 141.002 122.863ZM480.415 220.57L288.415 28.5701C280.735 20.8901 270.069 16.1968 258.335 16.1968H109.002C85.3221 16.1968 66.3354 35.1834 66.3354 58.8634V208.197C66.3354 219.93 71.0287 230.597 78.9221 238.277L270.709 430.277C278.602 437.957 289.269 442.863 301.002 442.863C312.735 442.863 323.402 437.957 331.082 430.277L480.415 280.943C488.309 273.263 493.002 262.597 493.002 250.863C493.002 238.917 488.095 228.25 480.415 220.57Z" fill="#5B7A8C"/>
<path d="M417.174 326.112L281.409 90.961C275.736 81.2266 266.442 74.1315 255.557 71.224L111.312 32.5737C100.382 29.6449 88.7355 31.1782 78.9356 36.8361C69.1358 42.4941 61.9849 51.8133 59.0561 62.7436L20.4058 206.989C17.5278 217.914 19.1002 229.534 24.7783 239.301L160.543 474.452C166.162 484.253 175.44 491.425 186.34 494.395C197.265 497.273 208.886 495.701 218.653 490.023L401.548 384.428C411.349 378.809 418.521 369.531 421.491 358.631C422.953 353.194 423.324 347.521 422.583 341.94C421.842 336.359 420.003 330.979 417.174 326.112ZM129.699 170.016C123.586 168.378 118.095 164.964 113.922 160.205C109.749 155.447 107.081 149.558 106.255 143.283C105.429 137.008 106.482 130.629 109.281 124.953C112.081 119.277 116.5 114.558 121.981 111.393C127.462 108.229 133.759 106.761 140.074 107.175C146.39 107.589 152.441 109.866 157.462 113.719C162.483 117.572 166.249 122.827 168.283 128.82C170.317 134.813 170.529 141.275 168.891 147.388C166.694 155.586 161.331 162.576 153.981 166.819C146.631 171.063 137.897 172.212 129.699 170.016ZM193.672 350.814L133.332 246.302L170.172 225.032L230.512 329.544M281.619 352.293L198.652 208.59L235.492 187.32L318.459 331.023L281.619 352.293Z" fill="#BD3B3B"/>
</svg>
